<?xml version="1.0" encoding="utf-8"?>
<svg viewBox="0 0 520 340" xmlns="http://www.w3.org/2000/svg">
  <path
    d="M 246 39.953 L 334 39.953 C 353.882 39.953 370 56.053 370 75.911 L 370 103.879 C 370 123.738 353.882 139.837 334 139.837 L 246 139.837 C 226.118 139.837 210 123.738 210 103.879 L 210 75.911 C 210 56.053 226.118 39.953 246 39.953 Z M 356 199.594 L 444 199.594 C 463.882 199.594 480 215.693 480 235.552 L 480 263.519 C 480 283.378 463.882 299.477 444 299.477 L 356 299.477 C 336.118 299.477 320 283.378 320 263.519 L 320 235.552 C 320 215.693 336.118 199.594 356 199.594 Z M 137.104 200.163 L 225.104 200.163 C 244.986 200.163 261.104 216.262 261.104 236.121 L 261.104 264.089 C 261.104 283.947 244.986 300.047 225.104 300.047 L 137.104 300.047 C 117.222 300.047 101.104 283.947 101.104 264.089 L 101.104 236.121 C 101.104 216.262 117.222 200.163 137.104 200.163 Z M 80 216.145 L 80 284.065 C 80 303.924 96.118 320.023 116 320.023 L 244 320.023 C 263.882 320.023 280 303.924 280 284.065 L 280 216.145 C 280 196.286 263.882 180.187 244 180.187 L 116 180.187 C 96.118 180.187 80 196.286 80 216.145 Z M 300 216.145 L 300 284.065 C 300 303.924 316.118 320.023 336 320.023 L 464 320.023 C 483.882 320.023 500 303.924 500 284.065 L 500 216.145 C 500 196.286 483.882 180.187 464 180.187 L 336 180.187 C 316.118 180.187 300 196.286 300 216.145 Z M 190 55.935 L 190 123.855 C 190 143.714 206.118 159.813 226 159.813 L 354 159.813 C 373.882 159.813 390 143.714 390 123.855 L 390 55.935 C 390 36.076 373.882 19.977 354 19.977 L 226 19.977 C 206.118 19.977 190 36.076 190 55.935 Z M 146 0 L 374 0 C 393.882 0 410 16.099 410 35.958 L 410 143.832 C 410 149.731 408.578 155.298 406.058 160.21 L 484 160.21 C 503.882 160.21 520 176.309 520 196.168 L 520 304.042 C 520 323.901 503.882 340 484 340 L 36 340 C 16.118 340 0 323.901 0 304.042 L 0 196.168 C 0 176.309 16.118 160.21 36 160.21 L 113.942 160.21 C 111.422 155.298 110 149.731 110 143.832 L 110 35.958 C 110 16.099 126.118 0 146 0 Z" />
</svg>